<svg xmlns="http://www.w3.org/2000/svg" viewBox="0 0 48 48" id="juice"><symbol id="New_Symbol_14" viewBox="-6.5 -6.5 13 13"><path fill="#ffd4c3" stroke="#504b46" stroke-linecap="round" stroke-linejoin="round" stroke-miterlimit="10" d="M0-6c2.2 0 4.1 1.5 4.7 3.5C6.3-2.5 6.4 0 5 0v1c0 2.8-2.2 5-5 5s-5-2.2-5-5V0c-1.4 0-1.3-2.5.2-2.5C-4.1-4.5-2.2-6 0-6z"></path><circle cx="-1.6" cy="-.1" r=".1" fill="#ffc258"></circle><path fill="#4f4b45" d="M-1.6.5c-.3 0-.6-.3-.6-.6s.2-.7.6-.7c.3 0 .6.3.6.7s-.3.6-.6.6z"></path><circle cx="1.6" cy="-.1" r=".1" fill="#ffc258"></circle><path fill="#4f4b45" d="M1.6.5C1.3.5 1 .2 1-.1s.3-.6.6-.6.6.3.6.6-.2.6-.6.6z"></path><circle cx="-3" cy="-1.5" r=".5" fill="#fabfa5"></circle><circle cx="3" cy="-1.5" r=".5" fill="#fabfa5"></circle><path fill="none" stroke="#504b46" stroke-linecap="round" stroke-linejoin="round" stroke-miterlimit="10" d="M-1.2-3c.8-.5 1.7-.5 2.5 0"></path></symbol><g id="Icons"><g id="XMLID_1218_"><ellipse id="XMLID_1124_" cx="25" cy="45.4" fill="#45413c" opacity=".15" rx="11.2" ry="1.7"></ellipse><g id="XMLID_541_"><path id="XMLID_1110_" fill="#00b8f0" stroke="#45413c" stroke-linecap="round" stroke-linejoin="round" stroke-miterlimit="10" d="M34.1 43.3c-.6-1.1-3.3-1.9-6.9-2.2-.5 0-.8-.4-.8-.9v-7.1h-2.6v7.1c0 .5-.4.8-.8.9-3.6.2-6.4 1.1-6.9 2.2-.1.2 0 .5.2.6.9.4 3.6 1.6 8.9 1.6s8-1.1 8.9-1.6c0-.1.1-.4 0-.6z"></path><g id="XMLID_551_"><path id="XMLID_1109_" fill="#00b8f0" d="M32.9 9.6c0-1-3.5-1.7-7.9-1.7s-7.9.8-7.9 1.7l-1.3 16.2c0 5.1 4.1 9.2 9.2 9.2s9.2-4.1 9.2-9.2L32.9 9.6z"></path><path id="XMLID_1108_" fill="#4acfff" d="M33.2 13.7l-.3-4c0-1-3.5-1.7-7.9-1.7s-7.9.8-7.9 1.7l-1.3 16.2c0 1.5.4 3 1 4.2 0 0 5.5-2.5 9.9-7.3s6.5-9.1 6.5-9.1z"></path><ellipse id="XMLID_1107_" cx="25" cy="9.6" fill="#00b8f0" rx="7.9" ry="1.7"></ellipse><path id="XMLID_1106_" fill="none" stroke="#45413c" stroke-linecap="round" stroke-linejoin="round" stroke-miterlimit="10" d="M32.9 9.6c0-1-3.5-1.7-7.9-1.7s-7.9.8-7.9 1.7l-1.3 16.2c0 5.1 4.1 9.2 9.2 9.2s9.2-4.1 9.2-9.2L32.9 9.6z"></path><path id="XMLID_552_" fill="none" stroke="#45413c" stroke-linecap="round" stroke-linejoin="round" stroke-miterlimit="10" d="M32.9 9.6c0 1-3.5 1.7-7.9 1.7s-7.9-.8-7.9-1.7"></path></g><path id="XMLID_550_" fill="#6dd627" stroke="#45413c" stroke-linecap="round" stroke-linejoin="round" stroke-miterlimit="10" d="M13.5 12.1c-.5.3-1.1.1-1.3-.4-1-2.5-.1-5.4 2.3-6.9s5.4-1 7.2 1c.4.4.2 1-.2 1.3l-8 5z"></path><g id="XMLID_543_"><path id="XMLID_549_" fill="#ff8a14" d="M18.9 16.2l-.9 9.6c0 3.9 3.1 7 7 7s7-3.1 7-7l-.9-9.6H18.9z"></path><path id="XMLID_548_" fill="#ff6242" d="M25 25.8c-3 0-5.6-.4-6.9-.9l-.1.9c0 3.9 3.1 7 7 7s7-3.1 7-7l-.1-.9c-1.3.5-3.9.9-6.9.9z"></path><ellipse id="XMLID_547_" cx="25" cy="16.2" fill="#ff8a14" rx="6.1" ry=".9"></ellipse><path id="XMLID_546_" fill="#bf8df2" stroke="#45413c" stroke-linecap="round" stroke-linejoin="round" stroke-miterlimit="10" d="M27.2 17.5h2.6V11c-.8.1-1.7.2-2.6.3v6.2z"></path><path id="XMLID_545_" fill="#ffaa54" d="M31.1 16.2c0 .5-2.7.9-6.1.9s-6.1-.4-6.1-.9l-.9 9.6c0 1.2.3 2.2.8 3.2 2-1.1 5.2-3.2 8-6.3 1.9-2.1 3.4-4.1 4.4-5.7l-.1-.8z"></path><path id="XMLID_544_" fill="#ff866e" d="M18.1 24.9l-.1.9c0 1.2.3 2.2.8 3.2 1.2-.7 3-1.8 4.7-3.2-2.3-.1-4.3-.5-5.4-.9z"></path></g><path id="XMLID_542_" fill="#9f5ae5" stroke="#45413c" stroke-linecap="round" stroke-linejoin="round" stroke-miterlimit="10" d="M30.8 6.7l3.4-4L32 .9l-3.9 4.9c-.6.8-.9 1.7-.9 2.7v2.8c1-.1 1.8-.2 2.6-.3V9.5c0-1.1.4-2.1 1-2.8z"></path></g></g></g></svg>